# xmcd
#
# Track frame offsets: 
#        150
#        12169
#        28676
#        55463
#        68016
#        80039
#        95986
#        116025
#        130983
#        143069
#        156924
#        171007
#        188995
#        202411
#        221327
#        257341
#
# Disc length: 3709 seconds
#
# Revision: 1
# Processed by: cddbd v1.5.2PL0 Copyright (c) Steve Scherf et al.
# Submitted via: ExactAudioCopyFreeDBPlugin 1.0
#
DISCID=ee0e7b10
DTITLE=Blood, Sweat and Tears - The Best of Blood, Sweat and Tears
DYEAR=2004
DGENRE=Blues
TTITLE0=More And More
TTITLE1=I Can't Quit Her
TTITLE2=I Love You More Than You'll Ever Know
TTITLE3=Go Down Gamblin'
TTITLE4=Spinning Wheel
TTITLE5=You'Ve Made Me So Very Happy
TTITLE6=So Long Dixie
TTITLE7=My Days Are Numbered
TTITLE8=Without Her
TTITLE9=Lucretia Macevil
TTITLE10=Sometimes In Winter
TTITLE11=Hi-De-Ho (That Old Sweet Roll)
TTITLE12=Lisa, Listen To Me
TTITLE13=The Modern Adventures Of Plato, Diogenes And Freud
TTITLE14=Somethin' Goin' On
TTITLE15=Just One Smile
EXTD=
EXTT0=
EXTT1=
EXTT2=
EXTT3=
EXTT4=
EXTT5=
EXTT6=
EXTT7=
EXTT8=
EXTT9=
EXTT10=
EXTT11=
EXTT12=
EXTT13=
EXTT14=
EXTT15=
PLAYORDER=
